<svg width="43" height="42" viewBox="0 0 43 42" fill="none" xmlns="http://www.w3.org/2000/svg">
<path fill-rule="evenodd" clip-rule="evenodd" d="M9.33325 16.5C9.95457 16.5 10.4583 17.0037 10.4583 17.625V19.125C10.4583 25.1311 15.3272 30 21.3333 30C27.3394 30 32.2083 25.1311 32.2083 19.125V17.625C32.2083 17.0037 32.712 16.5 33.3333 16.5C33.9546 16.5 34.4583 17.0037 34.4583 17.625V19.125C34.4583 25.9947 29.1804 31.6319 22.4583 32.2024V35.625C22.4583 36.2463 21.9546 36.75 21.3333 36.75C20.712 36.75 20.2083 36.2463 20.2083 35.625V32.2024C13.4862 31.6319 8.20825 25.9947 8.20825 19.125V17.625C8.20825 17.0037 8.71194 16.5 9.33325 16.5Z" fill="#F1BC40"/>
<path opacity="0.5" d="M17.9583 14.625C17.9583 14.0037 17.4546 13.5 16.8333 13.5H15.0572H12.781C13.3322 9.2681 16.9511 6 21.3333 6C25.7154 6 29.3343 9.2681 29.8855 13.5H27.6093H23.5833C22.962 13.5 22.4583 14.0037 22.4583 14.625C22.4583 15.2463 22.962 15.75 23.5833 15.75H27.7083H29.9583V18H27.7083H23.5833C22.962 18 22.4583 18.5037 22.4583 19.125C22.4583 19.7463 22.962 20.25 23.5833 20.25H27.6093H29.8855C29.3343 24.482 25.7154 27.75 21.3333 27.75C16.9511 27.75 13.3322 24.482 12.781 20.25H15.0572H16.8333C17.4546 20.25 17.9583 19.7463 17.9583 19.125C17.9583 18.5037 17.4546 18 16.8333 18H14.9583H12.7083V15.75H14.9583H16.8333C17.4546 15.75 17.9583 15.2463 17.9583 14.625Z" fill="#F1BC40"/>
<path d="M22.4583 19.125C22.4583 19.7463 22.962 20.25 23.5833 20.25H27.6093H29.8855L29.9583 18H27.7083H23.5833C22.962 18 22.4583 18.5037 22.4583 19.125Z" fill="#F1BC40"/>
<path d="M22.4583 14.625C22.4583 15.2463 22.962 15.75 23.5833 15.75H27.7083H29.9583L29.8855 13.5H27.6093H23.5833C22.962 13.5 22.4583 14.0037 22.4583 14.625Z" fill="#F1BC40"/>
<path d="M17.9583 14.625C17.9583 14.0037 17.4546 13.5 16.8333 13.5H15.0572H12.781L12.7083 15.75H14.9583H16.8333C17.4546 15.75 17.9583 15.2463 17.9583 14.625Z" fill="#F1BC40"/>
<path d="M17.9583 19.125C17.9583 18.5037 17.4546 18 16.8333 18H14.9583H12.7083L12.781 20.25H15.0572H16.8333C17.4546 20.25 17.9583 19.7463 17.9583 19.125Z" fill="#F1BC40"/>
</svg>
