<svg width="43" height="42" viewBox="0 0 43 42" fill="none" xmlns="http://www.w3.org/2000/svg">
<path opacity="0.5" d="M13.0564 35.0826H12.6665C11.2523 35.0826 10.5452 35.0826 10.1058 34.6433C9.6665 34.2039 9.6665 33.4968 9.6665 32.0826V30.4146C9.6665 29.6369 9.6665 29.2481 9.86627 28.9008C10.066 28.5534 10.3674 28.3782 10.9702 28.0277C14.9384 25.7196 20.5738 24.4205 24.3352 26.6639C24.5878 26.8146 24.8152 26.9966 25.0093 27.2147C25.8464 28.155 25.7855 29.5742 24.8207 30.4163C24.6169 30.594 24.3998 30.729 24.1811 30.7758C24.3608 30.755 24.533 30.7311 24.6974 30.7049C26.0645 30.4868 27.212 29.7563 28.2626 28.9626L30.9734 26.915C31.9291 26.193 33.3475 26.1929 34.3033 26.9145C35.1638 27.5643 35.4269 28.6341 34.8829 29.5061C34.2485 30.5231 33.3547 31.824 32.4964 32.6189C31.6369 33.4149 30.3574 34.1256 29.3128 34.6298C28.1555 35.1884 26.8772 35.5101 25.5769 35.7207C22.9397 36.1475 20.1914 36.0824 17.581 35.5446C16.1053 35.2406 14.5727 35.0826 13.0564 35.0826Z" fill="#F1BC40"/>
<path d="M13.5452 6.87769C12.995 7.42785 12.7893 8.18796 12.7124 9.37371C14.5399 9.34933 16.0168 7.87245 16.0412 6.04492C14.8554 6.12183 14.0953 6.32752 13.5452 6.87769Z" fill="#F1BC40"/>
<path d="M29.7877 6.87769C29.2375 6.32752 28.4775 6.12183 27.2917 6.04492C27.316 7.87243 28.7929 9.34933 30.6205 9.37371C30.5436 8.18796 30.3379 7.42785 29.7877 6.87769Z" fill="#F1BC40"/>
<path d="M29.788 17.121C29.2378 17.6712 28.4777 17.8769 27.292 17.9538C27.3164 16.1263 28.7932 14.6494 30.6208 14.625C30.5438 15.8107 30.3382 16.5709 29.788 17.121Z" fill="#F1BC40"/>
<path d="M13.5452 17.121C14.0953 17.6712 14.8554 17.8769 16.0412 17.9538C16.0168 16.1263 14.5399 14.6494 12.7124 14.625C12.7893 15.8107 12.995 16.5709 13.5452 17.121Z" fill="#F1BC40"/>
<path fill-rule="evenodd" clip-rule="evenodd" d="M12.6665 11.625C15.7731 11.625 18.2915 9.1066 18.2915 6H25.0415C25.0415 9.1066 27.5599 11.625 30.6665 11.625V12.375C27.5599 12.375 25.0415 14.8934 25.0415 18H18.2915C18.2915 14.8934 15.7731 12.375 12.6665 12.375V11.625ZM21.6665 13.5C22.495 13.5 23.1665 12.8284 23.1665 12C23.1665 11.1716 22.495 10.5 21.6665 10.5C20.8381 10.5 20.1665 11.1716 20.1665 12C20.1665 12.8284 20.8381 13.5 21.6665 13.5Z" fill="#F1BC40"/>
</svg>
