<svg width="42" height="42" viewBox="0 0 42 42" fill="none" xmlns="http://www.w3.org/2000/svg">
<path d="M28.4184 7.27097C30.5313 6.22469 31.5877 5.70156 32.3017 6.17654C33.0156 6.65153 32.914 7.81007 32.7111 10.1271L32.6586 10.7266C32.6008 11.385 32.572 11.7143 32.6751 12.0127C32.778 12.3111 33.0012 12.5449 33.4476 13.0126L33.8541 13.4384C35.4249 15.0841 36.2103 15.907 35.9514 16.7502C35.6925 17.5933 34.5607 17.8983 32.2972 18.5083L31.7116 18.6662C31.0684 18.8396 30.7468 18.9263 30.4903 19.1276C30.234 19.3289 30.0717 19.6221 29.7471 20.2084L29.4516 20.7422C28.3095 22.8057 27.7386 23.8374 26.8647 23.8834C25.9908 23.9295 25.3927 22.9594 24.1968 21.0195L23.8875 20.5176C23.5476 19.9662 23.3776 19.6906 23.1162 19.5166C22.8547 19.3426 22.5312 19.29 21.8842 19.1847L21.2952 19.0889C19.0186 18.7183 17.8802 18.5331 17.599 17.7184C17.3179 16.9038 18.0801 15.9992 19.6044 14.1902L19.9987 13.7222C20.4319 13.2081 20.6485 12.951 20.7433 12.6422C20.8381 12.3333 20.8005 12.0076 20.7252 11.3562L20.6566 10.7631C20.3917 8.47074 20.2593 7.32455 20.9593 6.77496C21.6594 6.22538 22.7284 6.63638 24.8664 7.45836L25.4196 7.67103C26.0271 7.90461 26.331 8.0214 26.6511 8.00451C26.9712 7.98762 27.2713 7.83897 27.8718 7.54164L28.4184 7.27097Z" fill="#F1BC40"/>
<g opacity="0.5">
<path d="M16.5668 19.9805C11.9857 22.9046 7.90667 28.1951 6.13621 33.0482C5.56178 34.6227 6.88604 36.0009 8.57503 36.0009H10.125C10.1251 35.4747 10.2484 34.8209 10.4306 34.1346C10.6181 33.4283 10.8883 32.6145 11.225 31.7424C11.8983 29.9988 12.8559 27.9758 14.0043 26.0478C15.1486 24.1268 16.5093 22.2549 18.0018 20.8488C18.0387 20.814 18.0759 20.7795 18.1131 20.745C18.078 20.7344 18.0434 20.7236 18.0093 20.7126C17.5829 20.5754 17.05 20.357 16.5668 19.9805Z" fill="#F1BC40"/>
<path d="M21.0303 21.3262C20.5522 21.6187 20.0558 22.0052 19.5447 22.4867C18.2594 23.6977 17.0221 25.3784 15.9373 27.1996C14.8567 29.0137 13.9538 30.9221 13.324 32.5531C13.0091 33.3685 12.767 34.1029 12.6052 34.7122C12.4383 35.3408 12.3751 35.7698 12.375 36.0011H16.6246C16.6247 34.3151 17.2086 31.1926 18.2654 28.0634C19.0409 25.7674 20.1146 23.3335 21.4983 21.4024L21.0303 21.3262Z" fill="#F1BC40"/>
<path d="M22.9473 23.2705C21.9338 24.8361 21.0708 26.7885 20.3972 28.7836C19.3803 31.7946 18.8748 34.6567 18.8745 36.0013H20.8077C22.4967 36.0013 23.8565 34.6417 23.969 32.971C24.1622 30.0999 24.6054 27.5121 25.1117 25.6717C24.6105 25.3774 24.2232 24.9907 23.9384 24.6562C23.6099 24.2706 23.2794 23.7889 22.9473 23.2705Z" fill="#F1BC40"/>
</g>
</svg>
